<svg width="240" height="54" viewBox="0 0 240 54" fill="none" xmlns="http://www.w3.org/2000/svg">
<path fill-rule="evenodd" clip-rule="evenodd" d="M41.7667 42.4303C37.6698 42.4303 34.3547 39.0159 34.3547 34.8107C34.3547 30.6164 37.6698 27.205 41.7667 27.205C45.8546 27.205 49.1747 30.6164 49.1747 34.8107C49.1747 39.0159 45.8546 42.4303 41.7667 42.4303Z" fill="#0085C6"/>
<path fill-rule="evenodd" clip-rule="evenodd" d="M62.8721 36.4925C64.2658 36.4925 65.3457 36.2601 66.1196 35.7971C66.8875 35.3332 67.2739 34.5226 67.2739 33.3752V11.4035H62.8721V36.4925ZM84.3132 19.341C83.645 18.7762 82.8655 18.3582 82.0253 18.1141C81.1873 17.869 80.3186 17.7446 79.4454 17.7446C78.4222 17.7446 77.5202 17.984 76.7403 18.4638C75.9585 18.9387 75.3366 19.4722 74.8727 20.0603L74.7634 19.949C74.9363 19.7533 75.0694 19.5536 75.1707 19.341C75.27 19.1364 75.3436 18.9317 75.3922 18.736C75.4667 18.5175 75.5134 18.3238 75.5393 18.1519H71.2834V36.4915H75.577V25.8897C75.577 24.0558 75.8462 22.7544 76.3916 21.9855C76.936 21.2126 77.8281 20.8292 79.059 20.8292C80.1974 20.8292 81.019 21.1898 81.5266 21.912C82.0343 22.6313 82.2906 23.8989 82.2906 25.7089V33.7775C82.2906 34.6319 82.6542 35.363 83.3824 35.9611C84.1086 36.5591 85.1745 36.8601 86.5812 36.8601V25.082C86.5812 23.6883 86.3736 22.526 85.9593 21.5991C85.5451 20.6682 84.9957 19.9192 84.3132 19.341ZM103.286 24.0399C102.366 23.4312 101.374 22.938 100.333 22.5716C99.3369 22.2179 98.3519 21.8329 97.3798 21.4173C96.4737 21.0229 95.7168 20.5719 95.1048 20.0593C94.4948 19.5407 94.1909 18.8602 94.1909 18.0039C94.1909 16.7561 94.5068 15.8412 95.1396 15.2521C95.7773 14.666 96.7787 14.3749 98.1477 14.3749C99.5216 14.3749 100.579 14.5676 101.326 14.961C102.068 15.3524 102.637 15.8879 103.029 16.5743L106.074 14.5915C105.785 14.1026 105.427 13.6577 105.011 13.2702C104.531 12.828 103.994 12.4524 103.414 12.1536C102.792 11.8228 102.059 11.5595 101.213 11.3668C100.371 11.1681 99.3974 11.0707 98.2987 11.0707C95.7058 11.0707 93.6355 11.6569 92.0967 12.8331C90.5569 14.0053 89.785 15.7299 89.785 18.0039C89.785 19.3986 90.093 20.5272 90.7029 21.3954C91.3129 22.2647 92.0739 22.9859 92.9779 23.5611C93.8799 24.1383 94.8694 24.6131 95.9284 24.9926C96.9953 25.3701 97.9778 25.7675 98.8858 26.1847C99.7898 26.602 100.548 27.0947 101.158 27.6699C101.768 28.2471 102.075 28.9971 102.075 29.925C102.075 31.1012 101.737 31.9933 101.067 32.6053C100.394 33.2152 99.2891 33.5202 97.7453 33.5202C97.0142 33.5202 96.3347 33.4229 95.7098 33.2271C95.1418 33.0558 94.5946 32.8216 94.0786 32.5288C93.6569 32.2909 93.2578 32.0149 92.8865 31.7042C92.6323 31.4949 92.3927 31.2685 92.1692 31.0267L89.8595 33.6692C90.0065 33.8133 90.2698 34.0646 90.6493 34.4193C91.0268 34.7729 91.5364 35.1355 92.1692 35.5041C92.805 35.8717 93.5749 36.1895 94.4839 36.4558C95.3869 36.724 96.439 36.8611 97.638 36.8611C100.522 36.8611 102.717 36.2482 104.219 35.0233C105.726 33.8013 106.478 32.0907 106.478 29.8912C106.478 28.4239 106.17 27.2298 105.56 26.3129C104.962 25.4101 104.188 24.6373 103.285 24.0409L103.286 24.0399ZM117.973 33.4666C117.482 33.6017 117.019 33.6692 116.579 33.6692C116.234 33.6692 115.955 33.553 115.734 33.3195C115.516 33.0871 115.403 32.7135 115.403 32.2019V21.0497H118.707L120.173 18.1539H115.403V14.3739C114.281 14.3739 113.399 14.6232 112.763 15.1239C112.127 15.6246 111.713 16.318 111.517 17.1962L111.331 18.1529H108.582V21.0487H111.222V32.2019C111.222 33.6692 111.614 34.8117 112.397 35.6342C113.177 36.4508 114.195 36.8611 115.44 36.8611C116.38 36.8693 117.315 36.7326 118.213 36.4558C119.056 36.1905 119.757 35.8339 120.32 35.3918L119.221 33.0076C118.821 33.2002 118.403 33.3539 117.973 33.4666ZM133.099 27.7991C133.099 28.8998 133.056 29.8257 132.97 30.5856C132.886 31.3446 132.713 31.9685 132.458 32.4572C132.199 32.948 131.834 33.3017 131.356 33.5202C130.879 33.7417 130.25 33.851 129.465 33.851C128.758 33.851 128.176 33.7308 127.727 33.4835C127.267 33.2351 126.895 32.8516 126.661 32.3847C126.403 31.896 126.232 31.2651 126.148 30.4942C126.056 29.5989 126.014 28.6991 126.02 27.7991V26.8464C126.02 25.7685 126.055 24.8396 126.128 24.0578C126.202 23.275 126.363 22.6372 126.607 22.1484C126.828 21.683 127.195 21.3027 127.652 21.0656C128.103 20.8351 128.709 20.7169 129.465 20.7169C130.25 20.7169 130.879 20.8361 131.356 21.0656C131.833 21.3011 132.199 21.6597 132.458 22.1484C132.713 22.6372 132.885 23.268 132.969 24.0409C133.056 24.8098 133.099 25.7427 133.099 26.8464V27.7991ZM135.118 19.7642C134.397 19.0621 133.524 18.5355 132.567 18.2254C131.578 17.9028 130.544 17.7411 129.503 17.7466C128.45 17.7466 127.45 17.9065 126.495 18.2254C125.549 18.5354 124.689 19.0628 123.984 19.7652C123.262 20.4745 122.686 21.4083 122.258 22.5726C121.832 23.734 121.618 25.1446 121.618 26.8066V27.8358C121.618 29.5217 121.832 30.9413 122.258 32.0917C122.686 33.2391 123.268 34.1679 124.002 34.8802C124.711 35.5731 125.571 36.0932 126.514 36.4002C127.467 36.7082 128.463 36.8641 129.465 36.8621C130.541 36.8621 131.566 36.7061 132.532 36.4011C133.488 36.0992 134.361 35.5788 135.081 34.8812C135.814 34.1679 136.401 33.2391 136.839 32.0917C137.281 30.9413 137.502 29.5217 137.502 27.8358V26.8066C137.502 25.1218 137.286 23.7012 136.86 22.5508C136.431 21.4034 135.849 20.4745 135.118 19.7642ZM149.106 17.7456C148.005 17.7456 147.07 17.9989 146.299 18.4976C145.53 18.9973 144.923 19.5328 144.478 20.097L144.331 19.9848C144.65 19.5675 144.86 19.2208 144.957 18.9397C145.057 18.6605 145.109 18.3933 145.109 18.1529H140.926V36.5273H145.221V26.1857C145.221 22.663 146.403 20.9027 148.776 20.9027C149.266 20.9027 149.682 20.9822 150.023 21.1411C150.375 21.3056 150.707 21.5092 151.013 21.7481L152.444 18.4072C151.86 18.139 151.334 17.9631 150.866 17.8767C150.403 17.7903 149.814 17.7466 149.106 17.7466V17.7456ZM159.037 21.7719C159.684 21.0219 160.626 20.6444 161.865 20.6444C162.498 20.6444 163.033 20.7358 163.471 20.9176C163.912 21.0984 164.263 21.3428 164.53 21.6428C164.796 21.9458 164.994 22.3004 165.115 22.7008C165.236 23.0982 165.296 23.5204 165.296 23.9525C165.296 24.1979 165.243 24.4095 165.133 24.5913C165.024 24.7721 164.811 24.8655 164.496 24.8655H158.07C158.07 23.5541 158.394 22.524 159.037 21.7719ZM167.225 33.1C166.833 33.2387 166.434 33.3545 166.03 33.4467C165.615 33.544 165.211 33.6255 164.82 33.6841C164.493 33.742 164.162 33.7732 163.83 33.7775C162.754 33.7775 161.849 33.6682 161.115 33.4517C160.382 33.2331 159.789 32.8785 159.335 32.3917C158.883 31.9079 158.552 31.2751 158.345 30.4942C158.138 29.7174 158.01 28.7696 157.961 27.65H167.1C167.835 27.65 168.422 27.4543 168.861 27.0609C169.298 26.6735 169.515 26.0993 169.515 25.3403C169.515 24.0459 169.315 22.9243 168.912 21.9855C168.509 21.0457 167.958 20.254 167.259 19.6182C166.561 18.983 165.737 18.5017 164.84 18.2055C163.9 17.8952 162.914 17.7402 161.924 17.7466C160.884 17.7449 159.85 17.9068 158.86 18.2264C157.873 18.5385 156.97 19.0708 156.219 19.7831C155.447 20.5023 154.83 21.4391 154.367 22.5915C153.899 23.7389 153.668 25.1565 153.668 26.8464C153.668 28.8998 153.934 30.5757 154.464 31.8701C154.996 33.1695 155.673 34.1868 156.499 34.9339C157.325 35.6789 158.252 36.1886 159.28 36.4568C160.262 36.7188 161.273 36.854 162.289 36.8591C163.146 36.8591 163.944 36.8035 164.693 36.6922C165.438 36.58 166.104 36.4449 166.691 36.2819C167.28 36.123 167.785 35.9511 168.214 35.7654C168.641 35.5796 168.968 35.4087 169.185 35.2647L168.157 32.642C167.913 32.8109 167.601 32.9649 167.224 33.099" fill="#434041"/>
<path fill-rule="evenodd" clip-rule="evenodd" d="M179.309 32.5655C179.728 31.0873 180.168 29.623 180.636 28.1706C181.104 26.7182 181.558 25.2559 182.005 23.7796L186.025 11.0042H188.721L180.231 36.6981H178.132L169.634 11.0042H172.292C172.393 11.3479 172.553 11.8585 172.774 12.536C172.998 13.2135 173.235 13.9646 173.493 14.7891C173.752 15.6137 174.03 16.4859 174.325 17.4108C174.618 18.3346 174.9 19.2079 175.177 20.0314C175.445 20.858 175.682 21.606 175.894 22.2855C176.106 22.963 176.269 23.4707 176.392 23.8124L179.163 32.6032L179.309 32.5655Z" fill="#0085C6"/>
<mask id="mask0_12_274" style="mask-type:alpha" maskUnits="userSpaceOnUse" x="0" y="0" width="240" height="54">
<path d="M0 53.3878H240V0H0V53.3878Z" fill="white"/>
</mask>
<g mask="url(#mask0_12_274)">
<path fill-rule="evenodd" clip-rule="evenodd" d="M191.119 36.6981H193.447V18.3873H191.119V36.6991V36.6981ZM191.047 13.4023H193.484V11.0042H191.047V13.4023ZM210.284 26.2523C210.23 24.2575 209.772 22.7773 208.899 21.8037C208.026 20.8301 206.813 20.3434 205.265 20.3434C203.761 20.3434 202.546 20.85 201.624 21.8573C200.702 22.8657 200.191 24.334 200.092 26.2523H210.285H210.284ZM200.091 28.1706C200.068 29.0835 200.153 29.9428 200.349 30.7594C200.548 31.5701 200.879 32.2774 201.347 32.8784C201.823 33.4909 202.436 33.9834 203.137 34.3169C203.865 34.6745 204.729 34.8524 205.74 34.8524C206.403 34.8524 207.131 34.7153 207.915 34.4282C208.678 34.1619 209.39 33.77 210.023 33.2688L211.462 34.8524C210.688 35.5471 209.785 36.0813 208.803 36.424C207.842 36.7554 206.833 36.9236 205.816 36.9217C204.861 36.9185 203.911 36.7886 202.99 36.5352C202.033 36.2709 201.149 35.7907 200.406 35.1315C199.631 34.456 198.997 33.5132 198.507 32.3102C198.013 31.1022 197.763 29.5355 197.763 27.6172C197.763 25.7963 198.002 24.2803 198.469 23.0793C198.935 21.8693 199.533 20.9046 200.262 20.1784C200.983 19.4542 201.796 18.9406 202.696 18.6466C203.546 18.3589 204.437 18.2096 205.334 18.2045C206.442 18.2045 207.438 18.4002 208.322 18.7936C209.195 19.179 209.976 19.7455 210.614 20.4556C211.254 21.1679 211.746 22.0342 212.093 23.0375C212.434 24.0478 212.609 25.1565 212.609 26.3615V28.1706H200.092H200.091ZM233.135 33.3781L234.612 28.1726L237.417 18.4221H239.998C239.829 18.9416 239.594 19.6728 239.3 20.6225C239.005 21.5702 238.664 22.6412 238.285 23.8353C237.903 25.0274 237.505 26.2701 237.083 27.5626C236.682 28.8033 236.288 30.0465 235.901 31.2919C235.536 32.484 235.196 33.5639 234.891 34.5206C234.653 35.2443 234.424 35.9709 234.204 36.7001H231.917C231.792 36.3087 231.592 35.6769 231.307 34.8166C231.021 33.9553 230.728 33.0513 230.421 32.1045C230.113 31.1568 229.822 30.2538 229.552 29.3895C229.354 28.7468 229.145 28.1076 228.924 27.4722C228.607 26.5384 228.304 25.6045 228.02 24.6826C227.739 23.7588 227.434 22.822 227.117 21.8583C226.822 22.7941 226.524 23.7359 226.23 24.6826C225.935 25.6324 225.637 26.5612 225.344 27.4712C225.121 28.0939 224.911 28.7212 224.715 29.3527C224.447 30.217 224.159 31.126 223.849 32.0857C223.541 33.0423 223.253 33.9553 222.983 34.8166C222.786 35.4484 222.577 36.0764 222.357 36.7001H220.066C219.917 36.2064 219.691 35.4802 219.381 34.5206C219.073 33.5639 218.736 32.484 218.368 31.2919C217.981 30.0465 217.586 28.8033 217.184 27.5626C216.767 26.2711 216.373 25.0274 216.004 23.8353C215.633 22.6412 215.295 21.5702 214.988 20.6225C214.75 19.8923 214.522 19.1587 214.304 18.4221H216.853C216.976 18.8463 217.172 19.5168 217.442 20.4357C217.714 21.3596 217.999 22.3262 218.292 23.3395C218.586 24.3469 218.874 25.3085 219.142 26.2354C219.414 27.1573 219.607 27.8278 219.731 28.2471L221.209 33.2311H221.321C221.593 32.4204 221.857 31.5919 222.115 30.7584C222.374 29.918 222.627 29.1084 222.87 28.3216C223.017 27.8974 223.241 27.2288 223.537 26.3099C223.83 25.386 224.147 24.4055 224.475 23.3723C224.81 22.3382 225.122 21.3606 225.422 20.4357C225.713 19.5168 225.923 18.8463 226.046 18.4221H228.261C228.41 18.8463 228.626 19.5168 228.907 20.4357C229.189 21.3596 229.499 22.3262 229.827 23.3395C230.162 24.3469 230.47 25.3085 230.754 26.2354C231.035 27.1573 231.25 27.8278 231.399 28.2471L232.988 33.3781H233.135Z" fill="#0085C6"/>
<path fill-rule="evenodd" clip-rule="evenodd" d="M28.2332 33.6504C28.2332 27.1395 33.5133 21.8584 40.0272 21.8584C42.9405 21.8578 45.7501 22.9402 47.91 24.8953C47.9239 24.5854 47.9328 24.2794 47.9328 23.9665C47.9328 10.7221 37.2048 -0.000938416 23.9684 -0.000938416C10.733 -0.000938416 0 10.7221 0 23.9665C0 37.1959 10.732 47.9329 23.9674 47.9329C28.3345 47.9329 32.4294 46.7577 35.9561 44.7112C31.4519 43.0532 28.2322 38.7348 28.2322 33.6504" fill="#434041"/>
</g>
</svg>
